<svg width="527" height="82" viewBox="0 0 527 82" fill="none" xmlns="http://www.w3.org/2000/svg">
<g clip-path="url(#clip0_651_2229)">
<path d="M54.4 19.6C52.1 17.6 49.2 16.1 45.9 15.2C44.9 11.4 42.9 8.2 40 5.7C35.4 1.9 29.1 0 21 0H2H0V67.4L14.5 81.3H16.4V69.3V58.1H35.4C43.6 58.1 49.9 56.1 54.4 52.2C58.9 48.3 61.1 42.8 61.1 35.7C61.2 28.8 58.9 23.5 54.4 19.6ZM1.9 66.9V55.4V44.2V42.3V1.9H20.9C28.5 1.9 34.3 3.6 38.5 7.1C40.9 9.1 42.6 11.6 43.6 14.6C41.1 14.1 38.4 13.8 35.4 13.8H16.4H14.5V42.2V44.1V78.8L1.9 66.9ZM44.8 21.9C44.8 28.4 42.7 33.4 38.6 37C34.5 40.6 28.6 42.4 21 42.4H16.4V15.8H35.4C38.7 15.8 41.6 16.1 44.2 16.8C44.6 18.4 44.8 20.1 44.8 21.9ZM53 50.9C48.9 54.5 43 56.3 35.4 56.3H16.4V44.3H21C29.2 44.3 35.5 42.3 40 38.4C44.5 34.5 46.7 29 46.7 21.9C46.7 20.3 46.6 18.8 46.3 17.4C48.9 18.3 51.1 19.5 53 21C57.1 24.5 59.2 29.4 59.2 35.7C59.2 42.3 57.2 47.3 53 50.9Z" fill="black"/>
</g>
<path d="M103.689 25.7C105.518 25.7 107.135 26.1247 108.54 26.974C109.945 27.7907 111.055 28.934 111.872 30.404C112.689 31.874 113.097 33.5563 113.097 35.451C113.097 37.3457 112.689 39.0607 111.872 40.596C111.055 42.0987 109.945 43.291 108.54 44.173C107.135 45.055 105.518 45.496 103.689 45.496H93.301L93.546 45.006V58.53C93.546 58.922 93.399 59.265 93.105 59.559C92.811 59.853 92.468 60 92.076 60C91.6187 60 91.2593 59.853 90.998 59.559C90.7367 59.265 90.606 58.922 90.606 58.53V27.17C90.606 26.778 90.753 26.435 91.047 26.141C91.341 25.847 91.684 25.7 92.076 25.7H103.689ZM103.689 42.654C104.963 42.654 106.074 42.3437 107.021 41.723C107.968 41.0697 108.703 40.204 109.226 39.126C109.781 38.0153 110.059 36.7903 110.059 35.451C110.059 34.1117 109.781 32.9357 109.226 31.923C108.703 30.8777 107.968 30.061 107.021 29.473C106.074 28.885 104.963 28.591 103.689 28.591H93.301L93.546 28.15V42.948L93.252 42.654H103.689ZM131.261 60C130.771 60 130.363 59.853 130.036 59.559C129.742 59.265 129.595 58.922 129.595 58.53V27.17C129.595 26.778 129.742 26.435 130.036 26.141C130.33 25.847 130.673 25.7 131.065 25.7H144.295C146.157 25.7 147.823 26.1083 149.293 26.925C150.763 27.709 151.907 28.8033 152.723 30.208C153.573 31.6127 153.997 33.197 153.997 34.961C153.997 36.3983 153.736 37.7213 153.213 38.93C152.691 40.1387 151.956 41.1677 151.008 42.017C150.061 42.8337 148.999 43.438 147.823 43.83L146.108 43.291C147.317 43.389 148.444 43.781 149.489 44.467C150.535 45.1203 151.368 46.035 151.988 47.211C152.642 48.3543 152.985 49.7427 153.017 51.376C153.05 52.7807 153.115 53.875 153.213 54.659C153.344 55.443 153.524 56.031 153.752 56.423C153.981 56.815 154.275 57.1253 154.634 57.354C154.961 57.55 155.173 57.8277 155.271 58.187C155.402 58.5463 155.369 58.8893 155.173 59.216C155.043 59.4773 154.847 59.6733 154.585 59.804C154.357 59.902 154.112 59.951 153.85 59.951C153.589 59.951 153.328 59.8857 153.066 59.755C152.609 59.4937 152.135 59.0853 151.645 58.53C151.188 57.9747 150.796 57.158 150.469 56.08C150.175 55.002 150.028 53.4993 150.028 51.572C150.028 50.298 149.816 49.2527 149.391 48.436C148.999 47.6193 148.477 46.9987 147.823 46.574C147.203 46.1167 146.5 45.8063 145.716 45.643C144.965 45.447 144.246 45.349 143.56 45.349H132.143L132.682 44.663V58.53C132.682 58.922 132.552 59.265 132.29 59.559C132.029 59.853 131.686 60 131.261 60ZM132.143 42.654H144.442C145.553 42.556 146.598 42.1967 147.578 41.576C148.558 40.9227 149.342 40.0407 149.93 38.93C150.551 37.8193 150.861 36.529 150.861 35.059C150.861 33.197 150.224 31.6617 148.95 30.453C147.709 29.2117 146.076 28.591 144.05 28.591H132.339L132.682 27.905V43.34L132.143 42.654ZM183.688 29.473L171.781 59.069C171.65 59.3957 171.47 59.6407 171.242 59.804C171.013 59.9673 170.752 60.049 170.458 60.049C170 60.049 169.657 59.9347 169.429 59.706C169.2 59.4447 169.069 59.1343 169.037 58.775C169.004 58.6117 169.02 58.4157 169.086 58.187L182.022 26.533C182.185 26.1737 182.381 25.9287 182.61 25.798C182.871 25.6347 183.165 25.553 183.492 25.553C183.818 25.553 184.096 25.651 184.325 25.847C184.586 26.0103 184.782 26.239 184.913 26.533L197.8 58.04C197.865 58.236 197.898 58.432 197.898 58.628C197.898 59.0853 197.751 59.4447 197.457 59.706C197.163 59.9347 196.82 60.049 196.428 60.049C196.101 60.049 195.807 59.9673 195.546 59.804C195.317 59.608 195.137 59.363 195.007 59.069L182.806 29.277L183.688 29.473ZM174.623 50.102L175.848 47.211H191.038L191.626 50.102H174.623ZM228.894 60.49C226.379 60.49 224.043 60.049 221.887 59.167C219.731 58.285 217.853 57.06 216.252 55.492C214.684 53.8913 213.459 52.013 212.577 49.857C211.695 47.701 211.254 45.3653 211.254 42.85C211.254 40.3347 211.695 37.999 212.577 35.843C213.459 33.687 214.684 31.825 216.252 30.257C217.853 28.6563 219.731 27.415 221.887 26.533C224.043 25.651 226.379 25.21 228.894 25.21C230.625 25.21 232.291 25.4223 233.892 25.847C235.525 26.239 236.979 26.8433 238.253 27.66C238.482 27.8233 238.645 28.0193 238.743 28.248C238.874 28.444 238.939 28.6563 238.939 28.885C238.939 29.3423 238.792 29.718 238.498 30.012C238.204 30.2733 237.894 30.404 237.567 30.404C237.404 30.404 237.24 30.3877 237.077 30.355C236.946 30.2897 236.816 30.2243 236.685 30.159C235.574 29.5383 234.366 29.0483 233.059 28.689C231.752 28.3297 230.364 28.15 228.894 28.15C226.085 28.15 223.586 28.787 221.397 30.061C219.208 31.335 217.493 33.0827 216.252 35.304C215.011 37.5253 214.39 40.0407 214.39 42.85C214.39 45.6593 215.011 48.1747 216.252 50.396C217.493 52.6173 219.208 54.365 221.397 55.639C223.586 56.913 226.085 57.55 228.894 57.55C230.364 57.55 231.834 57.3377 233.304 56.913C234.807 56.4883 236.097 55.9167 237.175 55.198L236.93 56.227V44.957L237.665 45.643H229.188C228.763 45.643 228.404 45.496 228.11 45.202C227.816 44.908 227.669 44.565 227.669 44.173C227.669 43.7157 227.816 43.3563 228.11 43.095C228.404 42.8337 228.763 42.703 229.188 42.703H238.547C238.972 42.703 239.315 42.85 239.576 43.144C239.87 43.4053 240.017 43.7483 240.017 44.173V55.982C240.017 56.2433 239.952 56.4883 239.821 56.717C239.69 56.9457 239.511 57.1417 239.282 57.305C237.845 58.285 236.228 59.069 234.431 59.657C232.667 60.2123 230.821 60.49 228.894 60.49ZM258.848 25.7C259.077 25.7 259.306 25.749 259.534 25.847C259.796 25.945 260.008 26.1083 260.171 26.337L273.695 46.623L272.372 46.574L285.945 26.337C286.305 25.847 286.746 25.6347 287.268 25.7C287.66 25.7 287.987 25.847 288.248 26.141C288.542 26.4023 288.689 26.7453 288.689 27.17V58.53C288.689 58.922 288.542 59.265 288.248 59.559C287.954 59.853 287.595 60 287.17 60C286.713 60 286.337 59.853 286.043 59.559C285.749 59.265 285.602 58.922 285.602 58.53V30.159L286.484 30.257L274.087 49.024C273.989 49.22 273.842 49.3833 273.646 49.514C273.45 49.612 273.222 49.6447 272.96 49.612C272.732 49.6447 272.503 49.612 272.274 49.514C272.078 49.3833 271.915 49.22 271.784 49.024L259.338 30.061L260.269 29.424V58.53C260.269 58.922 260.122 59.265 259.828 59.559C259.567 59.853 259.224 60 258.799 60C258.375 60 258.032 59.853 257.77 59.559C257.509 59.265 257.378 58.922 257.378 58.53V27.17C257.378 26.778 257.509 26.435 257.77 26.141C258.064 25.847 258.424 25.7 258.848 25.7ZM319.175 29.473L307.268 59.069C307.137 59.3957 306.957 59.6407 306.729 59.804C306.5 59.9673 306.239 60.049 305.945 60.049C305.487 60.049 305.144 59.9347 304.916 59.706C304.687 59.4447 304.556 59.1343 304.524 58.775C304.491 58.6117 304.507 58.4157 304.573 58.187L317.509 26.533C317.672 26.1737 317.868 25.9287 318.097 25.798C318.358 25.6347 318.652 25.553 318.979 25.553C319.305 25.553 319.583 25.651 319.812 25.847C320.073 26.0103 320.269 26.239 320.4 26.533L333.287 58.04C333.352 58.236 333.385 58.432 333.385 58.628C333.385 59.0853 333.238 59.4447 332.944 59.706C332.65 59.9347 332.307 60.049 331.915 60.049C331.588 60.049 331.294 59.9673 331.033 59.804C330.804 59.608 330.624 59.363 330.494 59.069L318.293 29.277L319.175 29.473ZM310.11 50.102L311.335 47.211H326.525L327.113 50.102H310.11ZM356.986 60C356.528 60 356.153 59.853 355.859 59.559C355.597 59.265 355.467 58.922 355.467 58.53V27.317H358.505V58.53C358.505 58.922 358.358 59.265 358.064 59.559C357.77 59.853 357.41 60 356.986 60ZM345.324 28.493C344.932 28.493 344.589 28.3623 344.295 28.101C344.001 27.8397 343.854 27.4967 343.854 27.072C343.854 26.68 344.001 26.3533 344.295 26.092C344.589 25.8307 344.932 25.7 345.324 25.7H368.648C369.04 25.7 369.383 25.8307 369.677 26.092C369.971 26.3533 370.118 26.6963 370.118 27.121C370.118 27.5457 369.971 27.8887 369.677 28.15C369.383 28.3787 369.04 28.493 368.648 28.493H345.324ZM389.253 58.481C389.22 58.9057 389.041 59.265 388.714 59.559C388.42 59.853 388.077 60 387.685 60C387.228 60 386.852 59.853 386.558 59.559C386.297 59.265 386.166 58.9057 386.166 58.481V27.219C386.166 26.7943 386.313 26.435 386.607 26.141C386.901 25.847 387.277 25.7 387.734 25.7C388.126 25.7 388.469 25.847 388.763 26.141C389.09 26.435 389.253 26.7943 389.253 27.219V58.481ZM433.255 28.248C433.647 28.5093 433.876 28.8523 433.941 29.277C434.006 29.669 433.908 30.061 433.647 30.453C433.418 30.747 433.124 30.9103 432.765 30.943C432.406 30.9757 432.063 30.9103 431.736 30.747C430.495 29.9303 429.155 29.2933 427.718 28.836C426.313 28.3787 424.794 28.15 423.161 28.15C421.168 28.15 419.306 28.5093 417.575 29.228C415.876 29.914 414.39 30.9267 413.116 32.266C411.842 33.5727 410.846 35.1243 410.127 36.921C409.441 38.7177 409.098 40.694 409.098 42.85C409.098 45.0713 409.457 47.0967 410.176 48.926C410.895 50.7227 411.891 52.2743 413.165 53.581C414.472 54.8877 415.974 55.884 417.673 56.57C419.372 57.256 421.201 57.599 423.161 57.599C424.762 57.599 426.264 57.3703 427.669 56.913C429.106 56.4557 430.446 55.835 431.687 55.051C432.014 54.855 432.357 54.7897 432.716 54.855C433.108 54.8877 433.418 55.0673 433.647 55.394C433.941 55.7533 434.039 56.1453 433.941 56.57C433.876 56.962 433.663 57.2723 433.304 57.501C432.487 58.0237 431.524 58.5137 430.413 58.971C429.302 59.4283 428.126 59.7877 426.885 60.049C425.644 60.343 424.402 60.49 423.161 60.49C420.809 60.49 418.604 60.0653 416.546 59.216C414.488 58.3667 412.659 57.1743 411.058 55.639C409.457 54.071 408.2 52.209 407.285 50.053C406.403 47.897 405.962 45.496 405.962 42.85C405.962 40.302 406.403 37.9663 407.285 35.843C408.167 33.687 409.392 31.825 410.96 30.257C412.528 28.689 414.357 27.464 416.448 26.582C418.539 25.7 420.776 25.259 423.161 25.259C425.023 25.259 426.82 25.5203 428.551 26.043C430.282 26.5657 431.85 27.3007 433.255 28.248ZM496.649 25.651C497.498 25.651 498.184 25.945 498.707 26.533C499.23 27.0883 499.491 27.7907 499.491 28.64V46.378C499.491 49.0893 498.903 51.4903 497.727 53.581C496.584 55.6717 494.999 57.305 492.974 58.481C490.949 59.657 488.597 60.245 485.918 60.245C483.239 60.245 480.871 59.657 478.813 58.481C476.788 57.305 475.187 55.6717 474.011 53.581C472.868 51.4903 472.296 49.0893 472.296 46.378V28.64C472.296 27.7907 472.59 27.0883 473.178 26.533C473.766 25.945 474.517 25.651 475.432 25.651C476.183 25.651 476.853 25.945 477.441 26.533C478.062 27.0883 478.372 27.7907 478.372 28.64V46.378C478.372 48.0113 478.715 49.4323 479.401 50.641C480.12 51.817 481.051 52.7317 482.194 53.385C483.37 54.0383 484.611 54.365 485.918 54.365C487.323 54.365 488.629 54.0383 489.838 53.385C491.047 52.7317 492.027 51.817 492.778 50.641C493.529 49.4323 493.905 48.0113 493.905 46.378V28.64C493.905 27.7907 494.15 27.0883 494.64 26.533C495.13 25.945 495.8 25.651 496.649 25.651ZM522.77 57.011C522.77 57.8603 522.46 58.579 521.839 59.167C521.218 59.7223 520.5 60 519.683 60C518.768 60 518.033 59.7223 517.478 59.167C516.923 58.579 516.645 57.8603 516.645 57.011V28.689C516.645 27.8397 516.939 27.1373 517.527 26.582C518.115 25.994 518.866 25.7 519.781 25.7C520.565 25.7 521.251 25.994 521.839 26.582C522.46 27.1373 522.77 27.8397 522.77 28.689V57.011Z" fill="black"/>
<defs>
<clipPath id="clip0_651_2229">
<rect width="61.2" height="81.3" fill="white"/>
</clipPath>
</defs>
</svg>
